<svg width="432" height="270" viewBox="0 0 432 270" fill="none" xmlns="http://www.w3.org/2000/svg">
<g opacity="0.25" clip-path="url(#clip0_2049_8969)">
<path d="M118 17.1239L132.126 2.32577C134.336 0.33118 136.93 -0.45839 139.909 0.262153C142.6 0.982696 144.682 3.10028 145.355 5.79764L150.448 25.8172L170.307 20.2021C172.998 19.4462 175.88 20.1957 177.834 22.1624C179.532 24.1323 180.557 27.0119 179.788 29.6898L174.183 49.5523L194.202 54.6453C196.893 55.318 199.007 57.4 199.744 60.0906C200.448 62.7812 199.391 65.3758 197.662 67.5859L182.863 82L197.662 96.1258C199.391 98.3359 200.448 100.93 199.744 103.909C199.007 106.6 196.893 108.682 194.202 109.355L174.183 114.448L179.788 134.307C180.557 136.998 179.532 139.88 177.834 141.834C175.88 143.532 172.998 144.557 170.307 143.788L150.448 138.183L145.355 158.202C144.682 160.893 142.6 163.007 139.909 163.744C136.93 164.448 134.336 163.391 132.126 161.662L118 146.863L103.586 161.662C101.376 163.391 98.7812 164.448 96.0906 163.744C93.4 163.007 91.3179 160.893 90.6453 158.202L85.5523 138.183L65.6897 143.788C63.0119 144.557 60.1323 143.532 58.1624 141.834C56.1957 139.88 55.4461 136.998 56.2021 134.307L61.8171 114.448L41.7976 109.355C39.1003 108.682 36.9827 106.6 36.2622 103.909C35.5416 100.93 36.3312 98.3359 38.3258 96.1258L53.1239 82L38.3258 67.5859C36.3312 65.3758 35.5416 62.7812 36.2622 60.0906C36.9827 57.4 39.1003 55.318 41.7976 54.6453L61.8171 49.5523L56.2021 29.6898C55.4461 27.0119 56.1957 24.1323 58.1624 22.1624C60.1323 20.1957 63.0119 19.4462 65.6897 20.2021L85.5523 25.8172L90.6453 5.79764C91.3179 3.10028 93.4 0.982696 96.0906 0.262153C98.7812 -0.45839 101.376 0.33118 103.586 2.32577L118 17.1239Z" fill="#E599F7"/>
</g>
<path d="M282 48C282 43.5817 285.582 40 290 40H298C302.418 40 306 43.5817 306 48V240C306 244.418 302.418 248 298 248H282V48Z" fill="#183153"/>
<path d="M154 48C154 43.5817 157.582 40 162 40H290C294.418 40 298 43.5817 298 48V240C298 244.418 294.418 248 290 248H154V48Z" fill="#515E7B"/>
<path d="M274 52C274 52 279.373 56 286 56C292.627 56 298 52 298 52V224C298 228.418 294.418 232 290 232H274V52Z" fill="white"/>
<path d="M274 52C274.002 52.0016 275.544 53.1486 277.993 54.2139L291.158 136H298V240C298 244.418 294.418 248 290 248H265L268.689 117.049L274 52Z" fill="#C3C6D1"/>
<path d="M250 48C250 43.5817 253.582 40 258 40H266C270.418 40 274 43.5817 274 48V240C274 244.418 270.418 248 266 248H250V48Z" fill="#183153"/>
<path d="M121 48C121 43.5817 124.582 40 129 40H258C262.418 40 266 43.5817 266 48V240C266 244.418 262.418 248 258 248H121V48Z" fill="url(#paint0_linear_2049_8969)"/>
<path d="M175 112C178.59 112 181.5 114.91 181.5 118.5C181.5 120.817 180.287 122.849 178.462 124H225.7C227.523 124 229 125.477 229 127.3C229 127.761 228.903 128.218 228.716 128.64L221 146L228.716 163.36C228.903 163.782 229 164.239 229 164.7C229 166.523 227.523 168 225.7 168H179V176H171V123.621C169.479 122.431 168.5 120.581 168.5 118.5C168.5 114.91 171.41 112 175 112Z" fill="#146EBE"/>
<path d="M237.452 145.426C237.452 145.888 237.356 146.344 237.168 146.766L229.452 164.126L231.006 167.621L235.615 177.992L237.168 181.487C237.356 181.908 237.452 182.365 237.452 182.826C237.452 184.649 235.975 186.126 234.153 186.126H187.452V194.126H179.452L171 176L168.5 118.5C168.5 114.91 171.41 112 175 112C177.609 112 179.859 113.537 180.894 115.755L180.895 115.758L184.738 124H225.7C227.025 124 228.167 124.78 228.692 125.906L228.693 125.908L237.145 144.032C237.342 144.456 237.452 144.928 237.452 145.426Z" fill="#334766"/>
<path d="M175 112C178.59 112 181.5 114.91 181.5 118.5C181.5 120.817 180.287 122.849 178.462 124H225.7C227.523 124 229 125.477 229 127.3C229 127.761 228.903 128.218 228.716 128.64L221 146L228.716 163.36C228.903 163.782 229 164.239 229 164.7C229 166.523 227.523 168 225.7 168H179V176H171V123.621C169.479 122.431 168.5 120.581 168.5 118.5C168.5 114.91 171.41 112 175 112Z" fill="#146EBE"/>
<path d="M172 112C175.59 112 178.5 114.91 178.5 118.5C178.5 120.817 177.287 122.849 175.462 124H222.7C224.523 124 226 125.477 226 127.3C226 127.761 225.903 128.218 225.716 128.64L218 146L225.716 163.36C225.903 163.782 226 164.239 226 164.7C226 166.523 224.523 168 222.7 168H176V176H168V123.621C166.479 122.431 165.5 120.581 165.5 118.5C165.5 114.91 168.41 112 172 112Z" fill="url(#paint1_linear_2049_8969)"/>
<path d="M110 48C110 43.5817 113.582 40 118 40H134V248H118C113.582 248 110 244.418 110 240V48Z" fill="#183153"/>
<path d="M134 230H110V226H134V230ZM134 202H110V198H134V202ZM134 174H110V170H134V174ZM134 146H110V142H134V146ZM134 118H110V114H134V118ZM134 90H110V86H134V90ZM134 62H110V58H134V62Z" fill="#001C40"/>
<path opacity="0.5" d="M199.512 72.8818L211.488 79.8682C213.488 81.0349 216 79.5923 216 77.2769V40H184C181.791 40 180 41.7909 180 44V77.2769C180 79.5923 182.512 81.0349 184.512 79.8682L196.488 72.8818C197.422 72.3369 198.578 72.3369 199.512 72.8818Z" fill="#183153"/>
<path d="M214 37C215.864 37 217.43 38.2748 217.874 40H201V44H199V37H214Z" fill="#FAB005"/>
<path d="M214 37C211.791 37 210 38.7909 210 41V71.2773C210 73.5925 207.488 75.0347 205.488 73.8682L193.512 66.8818C192.578 66.337 191.422 66.337 190.488 66.8818L178.512 73.8682C176.512 75.0347 174 73.5925 174 71.2773V41C174 38.7909 175.791 37 178 37H214Z" fill="#FFD43B"/>
<path d="M291.171 137.379L326.01 223.607L348.262 214.617L313.424 128.388C312.183 125.316 308.686 123.832 305.613 125.073L294.487 129.568C291.415 130.81 289.93 134.307 291.171 137.379Z" fill="#E599F7"/>
<path d="M346.946 236.719L348 246L342.311 238.592L346.946 236.719Z" stroke="#001C40" stroke-width="4" stroke-linejoin="round"/>
<path d="M341.872 240.926C341.209 241.194 340.452 241.089 339.893 240.643C335.061 236.788 329.158 231.4 326.01 223.607L348.262 214.616C351.411 222.41 350.908 230.386 350.109 236.516C350.017 237.225 349.546 237.825 348.883 238.093L341.872 240.926Z" fill="#515E7B"/>
<path d="M280.898 119.959C279.243 115.862 281.222 111.2 285.318 109.545L298.299 104.3C302.395 102.645 307.058 104.624 308.713 108.721L328.942 158.789C329.563 160.325 328.82 162.073 327.284 162.694L305.032 171.685C303.496 172.305 301.747 171.563 301.126 170.027L280.898 119.959Z" fill="#E599F7"/>
<path opacity="0.5" d="M287.585 120.493C286.964 118.957 287.706 117.208 289.242 116.588C290.779 115.967 292.527 116.709 293.148 118.245L313.377 168.313L307.814 170.561L287.585 120.493Z" fill="white"/>
<path opacity="0.5" d="M310.595 169.437L316.158 167.189L337.136 219.112L331.573 221.359L310.595 169.437Z" fill="white"/>
<path d="M339.187 233.533C337.763 232.289 334.624 228.911 331.573 221.359L337.136 219.112L342.006 231.165C342.42 232.189 341.925 233.355 340.901 233.769C340.317 234.005 339.661 233.947 339.187 233.533Z" fill="#616D8A"/>
<path opacity="0.5" d="M305.032 171.685L327.285 162.695L329.907 169.185L306.156 174.467L305.032 171.685Z" fill="#9C36B5"/>
<path d="M328.53 147.092C329.358 149.14 331.689 150.13 333.738 149.302C335.786 148.474 336.775 146.143 335.948 144.095L328.53 147.092ZM335.948 144.095L324.335 115.352L316.918 118.349L328.53 147.092L335.948 144.095ZM313.921 110.932L310.212 112.43L313.209 119.847L316.918 118.349L313.921 110.932ZM324.335 115.352C322.68 111.256 318.017 109.276 313.921 110.932L316.918 118.349L316.918 118.349L324.335 115.352Z" fill="#9C36B5"/>
<path d="M348 246H386.698" stroke="#001C40" stroke-width="4" stroke-linecap="round"/>
<defs>
<linearGradient id="paint0_linear_2049_8969" x1="179.093" y1="72.625" x2="291.332" y2="286.383" gradientUnits="userSpaceOnUse">
<stop stop-color="#515F7C"/>
<stop offset="1" stop-color="#193154"/>
</linearGradient>
<linearGradient id="paint1_linear_2049_8969" x1="162.5" y1="82" x2="206" y2="163" gradientUnits="userSpaceOnUse">
<stop stop-color="#D0EBFF"/>
<stop offset="1" stop-color="#74C0FC"/>
</linearGradient>
<clipPath id="clip0_2049_8969">
<rect width="164" height="164" fill="white" transform="translate(36)"/>
</clipPath>
</defs>
</svg>
